<svg width="70" height="72" viewBox="0 0 70 72" fill="none" xmlns="http://www.w3.org/2000/svg">
<rect width="70" height="72" rx="35" fill="#FDEBB3"/>
<path d="M35 22.2401C38.1924 20.397 41.8137 19.4266 45.5 19.4266C49.1863 19.4266 52.8076 20.397 56 22.2401V52.5734C52.8076 50.7303 49.1863 49.76 45.5 49.76C41.8137 49.76 38.1924 50.7303 35 52.5734C31.8076 50.7303 28.1863 49.76 24.5 49.76C20.8137 49.76 17.1924 50.7303 14 52.5734V22.2401C17.1924 20.397 20.8137 19.4266 24.5 19.4266C28.1863 19.4266 31.8076 20.397 35 22.2401ZM35 52.5734V22.2401" stroke="#E46F20" stroke-width="2" stroke-linecap="round" stroke-linejoin="round"/>
</svg>
