<svg width="36" height="29" viewBox="0 0 36 29" fill="none" xmlns="http://www.w3.org/2000/svg">
<path d="M1.96461 28.1875C1.40797 28.1875 0.941708 27.962 0.565813 27.511C0.189919 27.06 0.00131651 26.5025 6.77449e-06 25.8385C-0.00130296 25.1745 0.187299 24.6171 0.565813 24.1661C0.944327 23.7151 1.41059 23.4896 1.96461 23.4896H33.3983C33.9549 23.4896 34.4219 23.7151 34.7991 24.1661C35.1763 24.6171 35.3642 25.1745 35.3629 25.8385C35.3616 26.5025 35.173 27.0608 34.7971 27.5133C34.4212 27.9659 33.9549 28.1906 33.3983 28.1875H1.96461ZM1.96461 16.4427C1.40797 16.4427 0.941708 16.2172 0.565813 15.7662C0.189919 15.3152 0.00131651 14.7577 6.77449e-06 14.0937C-0.00130296 13.4298 0.187299 12.8723 0.565813 12.4213C0.944327 11.9703 1.41059 11.7448 1.96461 11.7448H33.3983C33.9549 11.7448 34.4219 11.9703 34.7991 12.4213C35.1763 12.8723 35.3642 13.4298 35.3629 14.0937C35.3616 14.7577 35.173 15.316 34.7971 15.7685C34.4212 16.2211 33.9549 16.4458 33.3983 16.4427H1.96461ZM1.96461 4.69791C1.40797 4.69791 0.941708 4.47241 0.565813 4.02141C0.189919 3.57041 0.00131651 3.01293 6.77449e-06 2.34896C-0.00130296 1.68498 0.187299 1.1275 0.565813 0.676499C0.944327 0.2255 1.41059 0 1.96461 0H33.3983C33.9549 0 34.4219 0.2255 34.7991 0.676499C35.1763 1.1275 35.3642 1.68498 35.3629 2.34896C35.3616 3.01293 35.173 3.5712 34.7971 4.02376C34.4212 4.47633 33.9549 4.70104 33.3983 4.69791H1.96461Z" fill="#5E4237"/>
</svg>
