<svg width="20" height="17" viewBox="0 0 20 17" fill="none" xmlns="http://www.w3.org/2000/svg">
<path d="M3.248 0.75H2.25C1.42157 0.75 0.75 1.42157 0.75 2.25V14.25C0.75 15.0784 1.42157 15.75 2.25 15.75H3.248C4.07643 15.75 4.748 15.0784 4.748 14.25V2.25C4.748 1.42157 4.07643 0.75 3.248 0.75Z" stroke="black" stroke-width="1.5" stroke-linecap="round" stroke-linejoin="round"/>
<path d="M9.699 0.75H8.701C7.87258 0.75 7.201 1.42157 7.201 2.25V14.25C7.201 15.0784 7.87258 15.75 8.701 15.75H9.699C10.5274 15.75 11.199 15.0784 11.199 14.25V2.25C11.199 1.42157 10.5274 0.75 9.699 0.75Z" stroke="black" stroke-width="1.5" stroke-linecap="round" stroke-linejoin="round"/>
<path d="M13.267 4.62401C13.102 4.00901 13.467 3.37701 14.081 3.21301L15.119 2.93501C15.733 2.77001 16.364 3.13501 16.529 3.74901L19.21 13.763C19.2493 13.909 19.2594 14.0614 19.2398 14.2113C19.2201 14.3613 19.1711 14.5059 19.0955 14.6369C19.0199 14.7678 18.9192 14.8826 18.7991 14.9746C18.6791 15.0666 18.5421 15.134 18.396 15.173L17.358 15.452C17.2119 15.4913 17.0595 15.5014 16.9095 15.4817C16.7595 15.4619 16.6149 15.4128 16.4839 15.3371C16.3529 15.2614 16.2381 15.1606 16.1462 15.0405C16.0542 14.9203 15.9869 14.7832 15.948 14.637L13.267 4.62401Z" stroke="black" stroke-width="1.5" stroke-linecap="round" stroke-linejoin="round"/>
</svg>
